<?xml version="1.0" encoding="UTF-8" standalone="no"?><!DOCTYPE svg PUBLIC "-//W3C//DTD SVG 1.1//EN" "http://www.w3.org/Graphics/SVG/1.1/DTD/svg11.dtd"><svg width="100%" height="100%" viewBox="0 0 417 417" version="1.1" xmlns="http://www.w3.org/2000/svg" xmlns:xlink="http://www.w3.org/1999/xlink" xml:space="preserve" xmlns:serif="http://www.serif.com/" style="fill-rule:evenodd;clip-rule:evenodd;stroke-linejoin:round;stroke-miterlimit:2;"><path d="M297.837,82.354l-128.552,-5.258l1.179,122.103l-45.406,2.337l0.59,70.691l48.355,1.169l8.338,124.66c-0,0 19.661,2.575 28.812,2.643c8.731,0.065 26.095,-2.235 26.095,-2.235l20.49,-120.979l45.406,-10.516l12.974,-63.68l-58.969,-7.011l10.024,-33.885l51.303,-5.258l-20.639,-74.781Z" style="fill:#a7a9ac;"/><path d="M211.153,18.428c-106.468,0 -192.781,85.514 -192.781,190.995c-0,95.758 71.197,174.821 163.969,188.633l-0,-138.011l-47.696,0l0,-50.205l47.696,-0l-0,-33.407c-0,-55.31 27.2,-79.593 73.598,-79.593c22.223,0 33.974,1.633 39.538,2.379l0,43.825l-31.651,-0c-19.699,-0 -26.578,18.5 -26.578,39.353l0,27.443l57.73,-0l-7.834,50.205l-49.896,0l0,138.419c94.095,-12.649 166.686,-92.354 166.686,-189.041c-0,-105.481 -86.313,-190.995 -192.781,-190.995Z" style="fill:#333132;fill-rule:nonzero;"/></svg>