<?xml version="1.0" encoding="UTF-8" standalone="no"?><!DOCTYPE svg PUBLIC "-//W3C//DTD SVG 1.1//EN" "http://www.w3.org/Graphics/SVG/1.1/DTD/svg11.dtd"><svg width="100%" height="100%" viewBox="0 0 3334 3334" version="1.1" xmlns="http://www.w3.org/2000/svg" xmlns:xlink="http://www.w3.org/1999/xlink" xml:space="preserve" xmlns:serif="http://www.serif.com/" style="fill-rule:evenodd;clip-rule:evenodd;stroke-linejoin:round;stroke-miterlimit:2;"><rect x="0" y="0" width="3333.33" height="3333.33" style="fill:none;"/><rect x="352.176" y="412.741" width="2606.55" height="2507.85" style="fill:#a7a9ac;"/><path d="M2826.32,183.378c182.465,0 332.611,150.146 332.611,332.611l-0,2328.27c-0,182.465 -150.146,332.611 -332.611,332.611l-2328.27,0c-182.464,0 -332.61,-150.146 -332.61,-332.611l-0,-2328.27c-0,-182.465 150.146,-332.611 332.61,-332.611l2328.27,0m-83.152,2577.73l-0,-881.418c-0,-297.418 -244.738,-542.155 -542.156,-542.155c-155.888,5.368 -299.862,86.043 -385.828,216.197l0,-184.599l-463.992,-0l0,1391.98l463.992,-0l0,-819.885c-0.554,-6.539 -0.831,-13.098 -0.831,-19.66c-0,-127.725 105.102,-232.827 232.827,-232.827c127.725,-0 232.827,105.102 232.827,232.827c0,6.562 -0.277,13.121 -0.831,19.66l-0,819.885l463.992,-0m-1932.47,-1653.08c153.271,0 279.393,-126.122 279.393,-279.392c0.554,-7.188 0.832,-14.395 0.832,-21.604c-0,-154.183 -126.873,-281.056 -281.056,-281.056c-154.183,0 -281.056,126.873 -281.056,281.056c-0,7.209 0.277,14.416 0.831,21.604c0.909,153.553 127.5,279.395 281.056,279.392m231.165,1653.08l-0,-1391.98l-460.666,-0l0,1391.98l460.666,-0Z" style="fill:#333132;fill-rule:nonzero;"/></svg>