<?xml version="1.0" encoding="UTF-8" standalone="no"?><!DOCTYPE svg PUBLIC "-//W3C//DTD SVG 1.1//EN" "http://www.w3.org/Graphics/SVG/1.1/DTD/svg11.dtd"><svg width="100%" height="100%" viewBox="0 0 3334 3334" version="1.1" xmlns="http://www.w3.org/2000/svg" xmlns:xlink="http://www.w3.org/1999/xlink" xml:space="preserve" xmlns:serif="http://www.serif.com/" style="fill-rule:evenodd;clip-rule:evenodd;stroke-linejoin:round;stroke-miterlimit:2;"><path d="M365.635,883.804l381.337,-502.467l1803.5,-26.918l444.145,466.577l-31.404,1776.58l-309.556,287.125l-1893.23,40.377l-314.042,-318.529l-80.754,-1722.75Z" style="fill:#a7a9ac;"/><path id="instagram---167-" serif:id="instagram-[#167]" d="M1077.75,197.485c-239.18,10.792 -446.488,69.272 -613.885,235.962c-167.981,167.565 -225.73,375.673 -236.548,612.364c-6.725,147.732 -46.053,1263.81 67.982,1556.51c76.9,197.461 228.361,349.276 427.629,426.423c92.981,36.167 199.121,60.667 354.822,67.814c1301.89,58.918 1784.49,26.833 1988,-494.237c36.111,-92.752 60.965,-198.774 67.836,-354.089c59.503,-1305.23 -9.649,-1588.15 -236.548,-1814.78c-179.97,-179.524 -391.664,-301.734 -1819.29,-235.962m11.988,2636.57c-142.543,-6.418 -219.882,-30.189 -271.489,-50.168c-129.824,-50.459 -227.338,-147.585 -277.484,-276.65c-86.842,-222.401 -58.041,-1278.69 -50.292,-1449.61c7.602,-167.42 41.52,-320.402 159.648,-438.528c146.198,-145.837 335.085,-217.296 1621.19,-159.252c167.835,7.582 321.197,41.417 439.617,159.252c146.198,145.835 218.712,336.151 159.648,1617.32c-6.433,142.19 -30.263,219.337 -50.292,270.817c-132.309,339.067 -436.693,386.172 -1730.54,326.818m1195.75,-1965.58c0,96.544 78.508,175.003 175.438,175.003c96.929,0 175.583,-78.459 175.583,-175.003c0,-96.543 -78.654,-175.003 -175.583,-175.003c-96.93,-0 -175.438,78.46 -175.438,175.003m-1355.69,778.472c-0,413.59 336.108,748.867 750.725,748.867c414.618,-0 750.727,-335.277 750.727,-748.867c-0,-413.591 -336.109,-748.721 -750.727,-748.721c-414.617,0 -750.725,335.13 -750.725,748.721m263.448,-0c0,-268.337 218.127,-486.071 487.277,-486.071c269.151,-0 487.278,217.734 487.278,486.071c0,268.483 -218.127,486.216 -487.278,486.216c-269.15,-0 -487.277,-217.733 -487.277,-486.216" style="fill:#333132;"/></svg>